<svg width="55" height="14" viewBox="0 0 55 14" fill="none" xmlns="http://www.w3.org/2000/svg">
<rect width="55" height="14" fill="none"/>
<rect width="55" height="13.75" fill="none"/>
<path d="M1 7.91658H1.97466V6.5623H3.3934C4.32192 6.5623 4.86404 6.10726 4.86404 5.31094C4.86404 4.50379 4.32192 4.07042 3.3934 4.07042H1V7.91658ZM3.30112 4.87216C3.68176 4.87216 3.86054 5.02925 3.86054 5.31636C3.86054 5.58722 3.67599 5.76056 3.30112 5.76056H1.97466V4.87216H3.30112Z" fill="#F1463B"/>
<path d="M7.54791 7.50488V7.91658H8.47067V5.11051H7.53638V5.50054C7.48448 5.40845 7.20188 5.05634 6.59056 5.05634C5.83505 5.05634 5.22949 5.60888 5.22949 6.51354C5.22949 7.42362 5.83505 7.97616 6.58479 7.97616C7.21342 7.97616 7.49601 7.59697 7.54791 7.50488ZM7.54791 6.51354C7.54791 6.91441 7.27686 7.22319 6.86738 7.22319C6.45214 7.22319 6.17532 6.91441 6.17532 6.51354C6.17532 6.11268 6.45214 5.8039 6.86738 5.8039C7.27686 5.8039 7.54791 6.11268 7.54791 6.51354Z" fill="#F1463B"/>
<path d="M11.2664 6.09101H12.1776C12.1315 5.68472 11.7335 5.04009 10.6781 5.04009C9.80727 5.04009 9.12674 5.62514 9.12674 6.51354C9.12674 7.40737 9.80727 7.987 10.6897 7.987C11.7451 7.987 12.143 7.33153 12.1776 6.9415H11.2779C11.2433 7.0065 11.0876 7.2286 10.7127 7.2286C10.3206 7.2286 10.0668 6.91983 10.0668 6.51354C10.0668 6.11268 10.3206 5.8039 10.707 5.8039C11.0703 5.8039 11.2202 6.01517 11.2664 6.09101Z" fill="#F1463B"/>
<path d="M14.7414 6.09101H15.6526C15.6064 5.68472 15.2085 5.04009 14.1531 5.04009C13.2822 5.04009 12.6017 5.62514 12.6017 6.51354C12.6017 7.40737 13.2822 7.987 14.1646 7.987C15.22 7.987 15.618 7.33153 15.6526 6.9415H14.7529C14.7183 7.0065 14.5626 7.2286 14.1877 7.2286C13.7955 7.2286 13.5418 6.91983 13.5418 6.51354C13.5418 6.11268 13.7955 5.8039 14.1819 5.8039C14.5453 5.8039 14.6952 6.01517 14.7414 6.09101Z" fill="#F1463B"/>
<path d="M17.2006 7.51571C17.2468 7.60238 17.5467 7.97616 18.181 7.97616C18.9481 7.97616 19.5536 7.42362 19.5536 6.51354C19.5536 5.60888 18.9481 5.05634 18.181 5.05634C17.5582 5.05634 17.2525 5.44637 17.2122 5.52763V5.11051H16.2779V9H17.2006V7.51571ZM17.2006 6.51354C17.2006 6.10726 17.4774 5.8039 17.91 5.8039C18.3368 5.8039 18.6078 6.10726 18.6078 6.51354C18.6078 6.91983 18.3368 7.22319 17.91 7.22319C17.4774 7.22319 17.2006 6.91983 17.2006 6.51354Z" fill="#F1463B"/>
<path d="M21.6795 5.04009C20.7395 5.04009 20.0417 5.64139 20.0417 6.51354C20.0417 7.38028 20.7395 7.987 21.6795 7.987C22.6138 7.987 23.3174 7.38028 23.3174 6.51354C23.3174 5.64139 22.6138 5.04009 21.6795 5.04009ZM21.6795 7.22319C21.2585 7.22319 20.9759 6.91441 20.9759 6.51354C20.9759 6.11268 21.2585 5.8039 21.6795 5.8039C22.1006 5.8039 22.3774 6.11268 22.3774 6.51354C22.3774 6.91441 22.1006 7.22319 21.6795 7.22319Z" fill="#F1463B"/>
<path d="M25.9666 7.91658H26.9009V5.11051H25.9666V6.28061C25.9666 6.28061 25.7301 6.31853 25.3668 6.31853C24.9515 6.31853 24.842 6.17226 24.842 5.84182V5.11051H23.9077V5.86891C23.9077 6.72481 24.3806 7.04442 25.2745 7.04442C25.6667 7.04442 25.9666 6.99567 25.9666 6.99567V7.91658Z" fill="#F1463B"/>
<path d="M27.7277 7.91658H28.662V6.69231L29.8962 7.91658H31.1188L29.6136 6.44312L31.0381 5.11051H29.8616L28.662 6.25352V5.11051H27.7277V7.91658Z" fill="#F1463B"/>
<path d="M33.5286 7.50488V7.91658H34.4513V5.11051H33.517V5.50054C33.4651 5.40845 33.1825 5.05634 32.5712 5.05634C31.8157 5.05634 31.2102 5.60888 31.2102 6.51354C31.2102 7.42362 31.8157 7.97616 32.5654 7.97616C33.1941 7.97616 33.4767 7.59697 33.5286 7.50488ZM33.5286 6.51354C33.5286 6.91441 33.2575 7.22319 32.848 7.22319C32.4328 7.22319 32.156 6.91441 32.156 6.51354C32.156 6.11268 32.4328 5.8039 32.848 5.8039C33.2575 5.8039 33.5286 6.11268 33.5286 6.51354Z" fill="#F1463B"/>
<path d="M38.331 4C37.3563 4 36.7566 4.54713 36.7566 5.43554V6.55146C36.7566 7.4507 37.3621 7.987 38.331 7.987C39.3057 7.987 39.9055 7.4507 39.9055 6.55146V5.43554C39.9055 4.54713 39.3114 4 38.331 4ZM38.331 7.17443C37.9215 7.17443 37.7139 6.90358 37.7139 6.52438V5.46262C37.7139 5.08342 37.9215 4.81257 38.331 4.81257C38.7462 4.81257 38.9481 5.08342 38.9481 5.46262V6.52438C38.9481 6.90358 38.7462 7.17443 38.331 7.17443Z" fill="#F1463B"/>
<path d="M40.7891 6.69231H42.7384V5.87974H40.7891V6.69231Z" fill="#F1463B"/>
<path d="M45.1908 4C44.2162 4 43.6164 4.54713 43.6164 5.43554V6.55146C43.6164 7.4507 44.2219 7.987 45.1908 7.987C46.1655 7.987 46.7653 7.4507 46.7653 6.55146V5.43554C46.7653 4.54713 46.1713 4 45.1908 4ZM45.1908 7.17443C44.7814 7.17443 44.5737 6.90358 44.5737 6.52438V5.46262C44.5737 5.08342 44.7814 4.81257 45.1908 4.81257C45.6061 4.81257 45.8079 5.08342 45.8079 5.46262V6.52438C45.8079 6.90358 45.6061 7.17443 45.1908 7.17443Z" fill="#F1463B"/>
<path d="M47.6489 6.69231H49.5983V5.87974H47.6489V6.69231Z" fill="#F1463B"/>
<path d="M54 6.88191V6.12351H53.2099V4.07042H52.1084L50.2398 6.29144V6.88191H52.2756V7.91658H53.2099V6.88191H54ZM51.2433 6.12351L52.2756 4.87216V6.12351H51.2433Z" fill="#F1463B"/>
</svg>
